# xmcd
#
# Track frame offsets: 
#        150
#        10645
#        35330
#        55735
#        74925
#        86485
#        105352
#        122750
#        136387
#        154810
#        164082
#        191422
#        226837
#
# Disc length: 3243 seconds
#
# Revision: 2
# Processed by: cddbd v1.5.2PL0 Copyright (c) Steve Scherf et al.
# Submitted via: ExactAudioCopy v0.99pb4
#
DISCID=a70ca90d
DTITLE=Lullabies - Child - Lullaby Celebration
DYEAR=1997
DGENRE=Vocal
TTITLE0=Raffi - Morningtown Ride
TTITLE1=The Roches - Good Night
TTITLE2=Maria Muldaur - Melancholy Baby
TTITLE3=Taj Mahal - Little Brown Dog
TTITLE4=Harry Nilssen - Blanket For A Sail
TTITLE5=Kathy Lee Gifford - Cody's Song
TTITLE6=Joanne Shenandoah - Light Up The World
TTITLE7=Ladysmith Black Mambazo - Be Still My Child
TTITLE8=Eric Bibb and Linda Tillery - Singing In My Heart
TTITLE9=Lena Horne - Summertime
TTITLE10=Van Dyke Parks and Brian Wilson - Lullabye
TTITLE11=Jerry Garcia and David Grisman - A Shanandoah Lullabye
TTITLE12=Linda Ronstadt and Aaron Neville - Brahms' Lullabye
EXTD=
EXTT0=
EXTT1=
EXTT2=
EXTT3=
EXTT4=
EXTT5=
EXTT6=
EXTT7=
EXTT8=
EXTT9=
EXTT10=
EXTT11=
EXTT12=
PLAYORDER=
